<svg width="46" height="40" viewBox="0 0 46 40" fill="none" xmlns="http://www.w3.org/2000/svg">
<path d="M44.5714 30.9775H37.4286V38.4963C37.4286 39.3233 36.7857 40 36 40C35.2143 40 34.5714 39.3233 34.5714 38.4963V30.9775H27.4286C26.6429 30.9775 26 30.3008 26 29.4737C26 28.6466 26.6429 27.9699 27.4286 27.9699H34.5714V20.4511C34.5714 19.6241 35.2143 18.9474 36 18.9474C36.7857 18.9474 37.4286 19.6241 37.4286 20.4511V27.9699H44.5714C45.3571 27.9699 46 28.6466 46 29.4737C46 30.3008 45.3571 30.9775 44.5714 30.9775Z" fill="#0CC4DC"/>
<path d="M33.2991 2.84853C31.5662 1.02463 29.2159 0 26.7652 0C24.3146 0 21.9643 1.02463 20.2313 2.84853L2.62365 21.3806C0.927222 23.2122 -0.0153279 25.6736 0.000188582 28.2316C0.015705 30.7895 0.988038 33.2381 2.70655 35.0467C4.42506 36.8554 6.75135 37.8786 9.18149 37.8946C11.6116 37.9105 13.9499 36.9181 15.6897 35.1322L33.2991 16.6001C35.0287 14.7749 36 12.3022 36 9.72432C36 7.1464 35.0287 4.67371 33.2991 2.84853ZM31.3354 14.5349L22.5316 23.8L13.3912 14.1807L22.195 4.91373C23.4119 3.66242 25.0484 2.96652 26.7496 2.97699C28.4507 2.98745 30.0794 3.70342 31.2823 4.96962C32.4852 6.23582 33.1654 7.95014 33.1754 9.74079C33.1853 11.5314 32.5242 13.254 31.3354 14.5349ZM28.6587 10.6528C28.7877 10.7885 28.8901 10.9496 28.9599 11.127C29.0298 11.3043 29.0657 11.4944 29.0657 11.6864C29.0657 11.8783 29.0298 12.0684 28.9599 12.2458C28.8901 12.4231 28.7877 12.5842 28.6587 12.7199L24.4953 17.1023C24.3664 17.2379 24.2133 17.3454 24.0449 17.4188C23.8765 17.4921 23.696 17.5298 23.5137 17.5297C23.3314 17.5296 23.151 17.4918 22.9826 17.4183C22.8142 17.3448 22.6613 17.2371 22.5324 17.1014C22.4036 16.9656 22.3015 16.8045 22.2318 16.6272C22.1621 16.45 22.1263 16.26 22.1264 16.0681C22.1264 15.8763 22.1624 15.6863 22.2322 15.5091C22.3021 15.3319 22.4044 15.1708 22.5333 15.0352L26.6967 10.6528C26.9569 10.3791 27.3098 10.2253 27.6777 10.2253C28.0456 10.2253 28.3985 10.3791 28.6587 10.6528Z" fill="#0CC4DC"/>
</svg>
