<svg width="24" height="23" viewBox="0 0 24 23" fill="none" xmlns="http://www.w3.org/2000/svg">
<path d="M23.4684 1.41395C23.3 1.26203 23.1 1.1415 22.8797 1.05927C22.6595 0.97703 22.4235 0.9347 22.185 0.9347C21.9466 0.9347 21.7106 0.97703 21.4903 1.05927C21.2701 1.1415 21.0701 1.26203 20.9017 1.41395L12 9.41116L3.09833 1.39756C2.92979 1.24584 2.72972 1.12549 2.50951 1.04338C2.28931 0.961268 2.0533 0.919006 1.81496 0.919006C1.57662 0.919006 1.3406 0.961268 1.1204 1.04338C0.900203 1.12549 0.700123 1.24584 0.531589 1.39756C0.363054 1.54928 0.229365 1.7294 0.138155 1.92763C0.0469448 2.12587 -1.7758e-09 2.33833 0 2.5529C1.7758e-09 2.76746 0.0469448 2.97993 0.138155 3.17816C0.229365 3.37639 0.363054 3.55651 0.531589 3.70823L9.43326 11.7218L0.531589 19.7354C0.363054 19.8871 0.229365 20.0673 0.138155 20.2655C0.0469448 20.4637 0 20.6762 0 20.8908C0 21.1053 0.0469448 21.3178 0.138155 21.516C0.229365 21.7142 0.363054 21.8944 0.531589 22.0461C0.700123 22.1978 0.900203 22.3182 1.1204 22.4003C1.3406 22.4824 1.57662 22.5246 1.81496 22.5246C2.0533 22.5246 2.28931 22.4824 2.50951 22.4003C2.72972 22.3182 2.92979 22.1978 3.09833 22.0461L12 14.0325L20.9017 22.0461C21.0702 22.1978 21.2703 22.3182 21.4905 22.4003C21.7107 22.4824 21.9467 22.5246 22.185 22.5246C22.4234 22.5246 22.6594 22.4824 22.8796 22.4003C23.0998 22.3182 23.2999 22.1978 23.4684 22.0461C23.6369 21.8944 23.7706 21.7142 23.8618 21.516C23.9531 21.3178 24 21.1053 24 20.8908C24 20.6762 23.9531 20.4637 23.8618 20.2655C23.7706 20.0673 23.6369 19.8871 23.4684 19.7354L14.5667 11.7218L23.4684 3.70823C24.1602 3.0855 24.1602 2.03668 23.4684 1.41395Z" fill="#0CC4DC"/>
</svg>
