<svg width="20" height="24" viewBox="0 0 20 24" fill="none" xmlns="http://www.w3.org/2000/svg">
<path d="M6.66667 0C5.78261 0 4.93476 0.31607 4.30964 0.87868C3.68452 1.44129 3.33333 2.20435 3.33333 3V18C3.33333 18.7956 3.68452 19.5587 4.30964 20.1213C4.93476 20.6839 5.78261 21 6.66667 21H16.6667C17.5507 21 18.3986 20.6839 19.0237 20.1213C19.6488 19.5587 20 18.7956 20 18V3C20 2.20435 19.6488 1.44129 19.0237 0.87868C18.3986 0.31607 17.5507 0 16.6667 0H6.66667ZM5 3C5 2.60218 5.17559 2.22064 5.48816 1.93934C5.80072 1.65804 6.22464 1.5 6.66667 1.5H16.6667C17.1087 1.5 17.5326 1.65804 17.8452 1.93934C18.1577 2.22064 18.3333 2.60218 18.3333 3V18C18.3333 18.3978 18.1577 18.7794 17.8452 19.0607C17.5326 19.342 17.1087 19.5 16.6667 19.5H6.66667C6.22464 19.5 5.80072 19.342 5.48816 19.0607C5.17559 18.7794 5 18.3978 5 18V3ZM0 6C1.48641e-05 5.4734 0.154043 4.95609 0.446603 4.50004C0.739164 4.044 1.15995 3.6653 1.66667 3.402V18.75C1.66667 19.7446 2.10565 20.6984 2.88705 21.4016C3.66846 22.1049 4.72826 22.5 5.83333 22.5H16.22C15.9274 22.956 15.5067 23.3348 15 23.5981C14.4932 23.8614 13.9184 24 13.3333 24H5.83333C4.28624 24 2.80251 23.4469 1.70854 22.4623C0.614582 21.4777 0 20.1424 0 18.75V6Z" fill="#0CC4DC"/>
</svg>
