<svg width="32" height="40" viewBox="0 0 32 40" fill="none" xmlns="http://www.w3.org/2000/svg">
<path fill-rule="evenodd" clip-rule="evenodd" d="M18.8235 0V11C18.8235 11.7956 19.121 12.5587 19.6505 13.1213C20.18 13.6839 20.8982 14 21.6471 14H32V28C32 29.0609 31.6034 30.0783 30.8973 30.8284C30.1913 31.5786 29.2338 32 28.2353 32H24.4706V36C24.4706 37.0609 24.0739 38.0783 23.3679 38.8284C22.6619 39.5786 21.7043 40 20.7059 40H3.76471C2.76624 40 1.80868 39.5786 1.10266 38.8284C0.396637 38.0783 0 37.0609 0 36V12C0 10.9391 0.396637 9.92172 1.10266 9.17157C1.80868 8.42143 2.76624 8 3.76471 8H7.52941V4C7.52941 2.93913 7.92605 1.92172 8.63207 1.17157C9.33809 0.421427 10.2957 0 11.2941 0H18.8235ZM7.52941 12H3.76471V36H20.7059V32H11.2941C10.2957 32 9.33809 31.5786 8.63207 30.8284C7.92605 30.0783 7.52941 29.0609 7.52941 28V12ZM22.5882 0.086C23.3014 0.246711 23.9553 0.623983 24.4706 1.172L30.8969 8C31.4127 8.54745 31.7678 9.24224 31.9191 10H22.5882V0.086Z" fill="#0CC4DC"/>
</svg>
