<svg xmlns="http://www.w3.org/2000/svg" xmlns:xlink="http://www.w3.org/1999/xlink" width="500" zoomAndPan="magnify" viewBox="0 0 375 374.999991" height="500" preserveAspectRatio="xMidYMid meet" version="1.0"><defs><clipPath id="be6cbf25f8"><path d="M 187.5 0 C 83.945312 0 0 83.945312 0 187.5 C 0 291.054688 83.945312 375 187.5 375 C 291.054688 375 375 291.054688 375 187.5 C 375 83.945312 291.054688 0 187.5 0 Z M 187.5 0 " clip-rule="nonzero"/></clipPath><clipPath id="7062fef9aa"><path d="M 62 245 L 186 245 L 186 318.242188 L 62 318.242188 Z M 62 245 " clip-rule="nonzero"/></clipPath><clipPath id="b69e98d0ef"><path d="M 62 195 L 185 195 L 185 318.242188 L 62 318.242188 Z M 62 195 " clip-rule="nonzero"/></clipPath></defs><rect x="-37.5" width="450" fill="#ffffff" y="-37.499999" height="449.999989" fill-opacity="1"/><rect x="-37.5" width="450" fill="#ffffff" y="-37.499999" height="449.999989" fill-opacity="1"/><g clip-path="url(#be6cbf25f8)"><rect x="-37.5" width="450" fill="#0cc4dc" y="-37.499999" height="449.999989" fill-opacity="1"/></g><path fill="#ffffff" d="M 293.148438 273.171875 C 282.222656 284.09375 267.902344 289.5625 253.578125 289.5625 C 239.261719 289.5625 224.9375 284.09375 214.011719 273.171875 L 210.5 269.65625 C 214.691406 256.273438 215.261719 241.910156 212.03125 228.007812 C 207.601562 208.960938 196.332031 192.296875 180.296875 181.070312 L 230.234375 131.128906 L 293.144531 194.039062 C 314.996094 215.890625 315 251.316406 293.148438 273.171875 " fill-opacity="1" fill-rule="nonzero"/><path fill="#ffffff" d="M 161.003906 61.894531 C 139.148438 40.042969 103.71875 40.039062 81.871094 61.890625 C 60.015625 83.746094 60.015625 119.171875 81.871094 141.027344 L 111.203125 170.363281 C 114.28125 169.402344 117.421875 168.625 120.613281 168.046875 L 87.730469 135.164062 C 78.726562 126.164062 73.769531 114.195312 73.769531 101.457031 C 73.769531 88.726562 78.726562 76.753906 87.730469 67.75 C 96.734375 58.75 108.703125 53.792969 121.433594 53.792969 C 134.167969 53.796875 146.140625 58.75 155.144531 67.753906 L 212.191406 124.800781 L 164.503906 172.484375 C 167.21875 173.585938 169.882812 174.835938 172.476562 176.238281 L 223.910156 124.800781 L 161.003906 61.894531 " fill-opacity="1" fill-rule="nonzero"/><path fill="#ffffff" d="M 91.875 76.070312 C 91.722656 76.222656 91.582031 76.386719 91.449219 76.566406 C 85.527344 84.707031 82.679688 94.746094 83.425781 104.835938 C 84.179688 115.035156 88.585938 124.636719 95.824219 131.878906 L 103.871094 139.925781 C 105.488281 141.542969 108.113281 141.542969 109.734375 139.925781 C 111.351562 138.304688 111.351562 135.679688 109.734375 134.0625 L 101.683594 126.015625 C 89.625 113.957031 88.140625 95.210938 98.15625 81.441406 C 99.5 79.589844 99.089844 77 97.242188 75.652344 C 95.570312 74.4375 93.292969 74.652344 91.875 76.070312 " fill-opacity="1" fill-rule="nonzero"/><path fill="#ffffff" d="M 141.746094 167.039062 C 139.488281 166.84375 137.210938 166.746094 134.925781 166.746094 C 133.546875 166.746094 132.171875 166.78125 130.800781 166.855469 L 119.289062 155.339844 C 117.667969 153.726562 117.667969 151.097656 119.289062 149.480469 C 120.90625 147.863281 123.53125 147.863281 125.152344 149.480469 L 140.617188 164.949219 C 141.210938 165.542969 141.585938 166.273438 141.746094 167.039062 " fill-opacity="1" fill-rule="nonzero"/><g clip-path="url(#7062fef9aa)"><path fill="#ffffff" d="M 185.101562 298.046875 C 171.382812 311.324219 153.207031 318.332031 134.792969 318.332031 C 120.496094 318.332031 106.054688 314.105469 93.441406 305.300781 C 73.300781 291.230469 62.519531 268.761719 62.519531 245.929688 C 62.664062 285.785156 95.019531 318.050781 134.90625 318.050781 C 154.339844 318.050781 171.984375 310.394531 184.984375 297.929688 L 185.101562 298.046875 " fill-opacity="1" fill-rule="nonzero"/></g><path fill="#ffffff" d="M 203.488281 268.878906 C 202.175781 272.820312 200.507812 276.6875 198.472656 280.4375 L 198.429688 280.40625 C 200.433594 276.742188 202.132812 272.890625 203.488281 268.878906 " fill-opacity="1" fill-rule="nonzero"/><g clip-path="url(#b69e98d0ef)"><path fill="#ffffff" d="M 82.644531 195.585938 L 184.984375 297.929688 C 171.984375 310.394531 154.339844 318.050781 134.90625 318.050781 C 95.019531 318.050781 62.664062 285.785156 62.519531 245.929688 L 62.519531 245.664062 C 62.519531 245.386719 62.519531 245.113281 62.527344 244.835938 C 62.742188 225.730469 70.359375 208.402344 82.644531 195.585938 " fill-opacity="1" fill-rule="nonzero"/></g><path fill="#ffffff" d="M 207.292969 245.664062 C 207.292969 253.472656 206.058594 260.992188 203.769531 268.039062 C 203.675781 268.320312 203.582031 268.597656 203.488281 268.878906 C 202.132812 272.890625 200.433594 276.742188 198.429688 280.40625 C 196.195312 284.476562 193.582031 288.3125 190.632812 291.859375 L 88.714844 189.9375 C 101.246094 179.53125 117.347656 173.277344 134.90625 173.277344 C 174.882812 173.277344 207.292969 205.6875 207.292969 245.664062 " fill-opacity="1" fill-rule="nonzero"/></svg>