<svg xmlns="http://www.w3.org/2000/svg" xmlns:xlink="http://www.w3.org/1999/xlink" width="417" zoomAndPan="magnify" viewBox="0 0 312.75 161.249994" height="215" preserveAspectRatio="xMidYMid meet" version="1.0"><defs><g/><clipPath id="99b0f46837"><path d="M 0.597656 21.804688 L 122.1875 21.804688 L 122.1875 137.949219 L 0.597656 137.949219 Z M 0.597656 21.804688 " clip-rule="nonzero"/></clipPath><clipPath id="e580b24ea8"><path d="M 58.671875 21.804688 L 64.058594 21.804688 C 79.460938 21.804688 94.230469 27.925781 105.121094 38.816406 C 116.011719 49.707031 122.128906 64.476562 122.128906 79.878906 C 122.128906 95.28125 116.011719 110.050781 105.121094 120.941406 C 94.230469 131.832031 79.460938 137.949219 64.058594 137.949219 L 58.671875 137.949219 C 43.269531 137.949219 28.5 131.832031 17.609375 120.941406 C 6.71875 110.050781 0.597656 95.28125 0.597656 79.878906 C 0.597656 64.476562 6.71875 49.707031 17.609375 38.816406 C 28.5 27.925781 43.269531 21.804688 58.671875 21.804688 Z M 58.671875 21.804688 " clip-rule="nonzero"/></clipPath><clipPath id="6dd5945182"><path d="M 20.046875 101 L 61 101 L 61 125 L 20.046875 125 Z M 20.046875 101 " clip-rule="nonzero"/></clipPath><clipPath id="db57d7f90b"><path d="M 20.046875 85 L 61 85 L 61 125 L 20.046875 125 Z M 20.046875 85 " clip-rule="nonzero"/></clipPath></defs><g clip-path="url(#99b0f46837)"><g clip-path="url(#e580b24ea8)"><path fill="#0cc4dc" d="M 0.597656 21.804688 L 122.1875 21.804688 L 122.1875 137.949219 L 0.597656 137.949219 Z M 0.597656 21.804688 " fill-opacity="1" fill-rule="nonzero"/></g></g><path fill="#ffffff" d="M 95.605469 110.335938 C 92.0625 113.875 87.421875 115.648438 82.78125 115.648438 C 78.140625 115.648438 73.496094 113.875 69.957031 110.335938 L 68.820312 109.199219 C 70.175781 104.859375 70.363281 100.203125 69.316406 95.699219 C 67.878906 89.527344 64.226562 84.125 59.03125 80.488281 L 75.214844 64.300781 L 95.601562 84.691406 C 102.683594 91.773438 102.683594 103.253906 95.605469 110.335938 " fill-opacity="1" fill-rule="nonzero"/><path fill="#ffffff" d="M 52.777344 41.863281 C 45.695312 34.785156 34.214844 34.78125 27.132812 41.863281 C 20.050781 48.945312 20.050781 60.429688 27.132812 67.511719 L 36.640625 77.019531 C 37.636719 76.707031 38.652344 76.457031 39.6875 76.265625 L 29.03125 65.609375 C 26.113281 62.695312 24.507812 58.816406 24.507812 54.6875 C 24.507812 50.5625 26.113281 46.679688 29.03125 43.761719 C 31.949219 40.847656 35.828125 39.238281 39.953125 39.238281 C 44.082031 39.242188 47.960938 40.847656 50.878906 43.765625 L 69.367188 62.253906 L 53.914062 77.707031 C 54.792969 78.0625 55.65625 78.46875 56.496094 78.921875 L 73.164062 62.253906 L 52.777344 41.863281 " fill-opacity="1" fill-rule="nonzero"/><path fill="#ffffff" d="M 30.375 46.460938 C 30.324219 46.507812 30.28125 46.5625 30.238281 46.621094 C 28.316406 49.257812 27.394531 52.511719 27.636719 55.78125 C 27.882812 59.085938 29.308594 62.199219 31.652344 64.546875 L 34.261719 67.152344 C 34.785156 67.679688 35.636719 67.679688 36.160156 67.152344 C 36.6875 66.628906 36.6875 65.777344 36.160156 65.253906 L 33.554688 62.644531 C 29.644531 58.738281 29.164062 52.664062 32.410156 48.199219 C 32.847656 47.601562 32.714844 46.761719 32.113281 46.324219 C 31.570312 45.929688 30.832031 46 30.375 46.460938 " fill-opacity="1" fill-rule="nonzero"/><path fill="#ffffff" d="M 46.535156 75.941406 C 45.804688 75.878906 45.066406 75.847656 44.324219 75.847656 C 43.878906 75.847656 43.433594 75.859375 42.988281 75.882812 L 39.257812 72.148438 C 38.734375 71.625 38.734375 70.773438 39.257812 70.25 C 39.78125 69.726562 40.632812 69.726562 41.160156 70.25 L 46.171875 75.261719 C 46.363281 75.457031 46.484375 75.691406 46.535156 75.941406 " fill-opacity="1" fill-rule="nonzero"/><g clip-path="url(#6dd5945182)"><path fill="#ffffff" d="M 60.589844 118.398438 C 56.140625 122.699219 50.25 124.972656 44.285156 124.972656 C 39.648438 124.972656 34.96875 123.601562 30.882812 120.75 C 24.355469 116.191406 20.863281 108.90625 20.863281 101.507812 C 20.90625 114.425781 31.394531 124.882812 44.320312 124.882812 C 50.617188 124.882812 56.335938 122.398438 60.550781 118.359375 L 60.589844 118.398438 " fill-opacity="1" fill-rule="nonzero"/></g><path fill="#ffffff" d="M 66.546875 108.945312 C 66.121094 110.222656 65.582031 111.476562 64.921875 112.691406 L 64.90625 112.679688 C 65.554688 111.496094 66.105469 110.246094 66.546875 108.945312 " fill-opacity="1" fill-rule="nonzero"/><g clip-path="url(#db57d7f90b)"><path fill="#ffffff" d="M 27.382812 85.191406 L 60.550781 118.359375 C 56.335938 122.398438 50.617188 124.882812 44.320312 124.882812 C 31.394531 124.882812 20.90625 114.425781 20.863281 101.507812 L 20.863281 101.421875 C 20.863281 101.332031 20.863281 101.242188 20.863281 101.152344 C 20.933594 94.960938 23.402344 89.347656 27.382812 85.191406 " fill-opacity="1" fill-rule="nonzero"/></g><path fill="#ffffff" d="M 67.78125 101.421875 C 67.78125 103.953125 67.378906 106.390625 66.636719 108.671875 C 66.609375 108.765625 66.578125 108.855469 66.546875 108.945312 C 66.105469 110.246094 65.554688 111.496094 64.90625 112.679688 C 64.183594 114 63.335938 115.242188 62.378906 116.394531 L 29.351562 83.363281 C 33.410156 79.988281 38.628906 77.964844 44.320312 77.964844 C 57.277344 77.964844 67.78125 88.464844 67.78125 101.421875 " fill-opacity="1" fill-rule="nonzero"/><path stroke-linecap="butt" transform="matrix(0.746528, 0, 0, 0.746528, 132.583646, 74.857017)" fill="none" stroke-linejoin="miter" d="M 7.998419 75.001425 C 7.412372 75.001425 6.951907 74.828751 6.627489 74.483402 C 6.308302 74.127588 6.151326 73.625262 6.151326 72.98689 L 6.151326 11.514788 C 6.151326 10.400253 6.648419 9.840369 7.63214 9.840369 L 25.815282 9.840369 C 26.458887 9.840369 26.924584 9.929323 27.207143 10.101997 C 27.510631 10.269439 27.751329 10.62002 27.934468 11.148509 L 41.18854 47.943863 C 41.355982 48.414793 41.565284 48.650258 41.811214 48.650258 C 42.036215 48.650258 42.235052 48.414793 42.407726 47.943863 L 55.060054 11.860137 C 55.415868 10.515369 56.059472 9.840369 56.990868 9.840369 L 75.875173 9.840369 C 76.74901 9.840369 77.183313 10.368858 77.183313 11.431067 L 77.183313 72.897936 C 77.183313 73.656657 77.005406 74.200844 76.649592 74.530495 C 76.304243 74.844448 75.754824 75.001425 74.996103 75.001425 L 63.678078 75.001425 C 62.961218 75.001425 62.479822 74.870611 62.218194 74.614216 C 61.961799 74.342123 61.836217 73.88689 61.836217 73.243285 L 61.836217 29.504326 C 61.836217 29.101418 61.742031 28.902581 61.553659 28.902581 C 61.386217 28.902581 61.213543 29.132814 61.040868 29.588046 L 45.66761 73.583402 C 45.369355 74.530495 44.751913 75.001425 43.82575 75.001425 L 36.536795 75.001425 C 35.474586 75.001425 34.830981 74.530495 34.605981 73.583402 L 19.405397 30.210721 C 19.232723 29.739791 19.060048 29.504326 18.887374 29.504326 C 18.646676 29.504326 18.526327 29.765953 18.526327 30.294442 L 18.526327 73.41596 C 18.526327 74.054332 18.426909 74.483402 18.222839 74.697937 C 18.024002 74.902006 17.600165 75.001425 16.961792 75.001425 Z M 89.485059 11.514788 C 89.485059 10.400253 89.950756 9.840369 90.882152 9.840369 L 135.154832 9.840369 C 136.02867 9.840369 136.462972 10.337462 136.462972 11.321183 L 136.379251 19.232812 C 136.379251 20.462464 135.761809 21.079906 134.532158 21.079906 L 106.511805 21.079906 C 105.412968 21.079906 104.858317 21.550836 104.858317 22.492697 L 104.858317 35.228745 C 104.858317 36.212466 105.297851 36.709559 106.166456 36.709559 L 124.778668 36.709559 C 125.778087 36.709559 126.280413 37.180489 126.280413 38.12235 L 126.280413 46.54677 C 126.280413 47.363049 125.809482 47.771189 124.862389 47.771189 L 106.082735 47.771189 C 105.266456 47.771189 104.858317 48.12177 104.858317 48.822933 L 104.858317 62.605493 C 104.858317 63.024098 104.931572 63.322354 105.072851 63.505493 C 105.219363 63.678168 105.465293 63.767121 105.82634 63.767121 L 135.840298 63.767121 C 136.897275 63.767121 137.425763 64.201423 137.425763 65.075261 L 137.425763 73.41596 C 137.425763 74.472937 136.839716 75.001425 135.667623 75.001425 L 91.415873 75.001425 C 90.71471 75.001425 90.217617 74.854913 89.914128 74.572355 C 89.63157 74.268867 89.485059 73.797936 89.485059 73.154332 Z M 148.848439 9.840369 C 158.507743 9.840369 165.032744 9.871765 168.423442 9.929323 C 180.01356 10.269439 188.647282 13.231067 194.319376 18.803743 C 200.0124 24.365953 202.853679 32.146768 202.853679 42.15142 C 202.853679 52.459561 199.897284 60.512469 193.979259 66.315377 C 188.061235 72.10782 179.40135 75.001425 167.994372 75.001425 L 148.93216 75.001425 C 148.230997 75.001425 147.718206 74.844448 147.388555 74.530495 C 147.074602 74.200844 146.917625 73.656657 146.917625 72.897936 L 146.917625 11.598509 C 146.917625 10.954904 147.058904 10.504904 147.346695 10.248509 C 147.644951 9.976416 148.147276 9.840369 148.848439 9.840369 Z M 163.060069 20.734557 C 162.547278 20.734557 162.290883 21.142696 162.290883 21.958976 L 162.290883 62.971772 C 162.290883 63.442702 162.358906 63.767121 162.505418 63.934563 C 162.646697 64.107237 162.955418 64.196191 163.426348 64.196191 L 165.100767 64.196191 C 172.473442 64.196191 177.925769 62.485144 181.457746 59.068283 C 185.000188 55.640957 186.774026 49.974096 186.774026 42.067699 C 186.774026 34.74735 185.282747 29.483395 182.294955 26.265372 C 179.322862 23.036883 174.69728 21.247348 168.423442 20.907231 Z M 163.060069 20.734557 " stroke="#0cc4dc" stroke-width="3.293351" stroke-opacity="1" stroke-miterlimit="4"/><g fill="#0cc4dc" fill-opacity="1"><g transform="translate(135.77164, 76.069153)"><g><path d="M 12.921875 -48.671875 C 18.128906 -48.671875 21.363281 -48.648438 22.625 -48.609375 C 31.15625 -48.296875 37.609375 -45.984375 41.984375 -41.671875 C 46.359375 -37.367188 48.546875 -31.632812 48.546875 -24.46875 C 48.546875 -19.65625 47.5625 -15.410156 45.59375 -11.734375 C 43.625 -8.066406 40.691406 -5.191406 36.796875 -3.109375 C 32.898438 -1.035156 28.15625 0 22.5625 0 L 5.3125 0 C 4.65625 0 4.171875 -0.148438 3.859375 -0.453125 C 3.554688 -0.765625 3.40625 -1.269531 3.40625 -1.96875 L 3.40625 -47.03125 C 3.40625 -47.644531 3.535156 -48.070312 3.796875 -48.3125 C 4.066406 -48.550781 4.53125 -48.671875 5.1875 -48.671875 Z M 18.953125 -38.375 C 18.734375 -38.375 18.566406 -38.304688 18.453125 -38.171875 C 18.347656 -38.046875 18.296875 -37.804688 18.296875 -37.453125 L 18.296875 -11.28125 C 18.296875 -10.882812 18.359375 -10.617188 18.484375 -10.484375 C 18.617188 -10.359375 18.863281 -10.296875 19.21875 -10.296875 L 19.671875 -10.296875 C 24.003906 -10.296875 27.296875 -11.421875 29.546875 -13.671875 C 31.796875 -15.921875 32.921875 -19.582031 32.921875 -24.65625 C 32.921875 -29.03125 32.066406 -32.289062 30.359375 -34.4375 C 28.660156 -36.582031 26.171875 -37.804688 22.890625 -38.109375 Z M 18.953125 -38.375 "/></g></g></g><g fill="#0cc4dc" fill-opacity="1"><g transform="translate(186.341121, 76.069153)"><g><path d="M 25.640625 0.65625 C 20.878906 0.65625 16.71875 -0.359375 13.15625 -2.390625 C 9.59375 -4.421875 6.847656 -7.304688 4.921875 -11.046875 C 2.992188 -14.785156 2.03125 -19.171875 2.03125 -24.203125 C 2.03125 -29.234375 3.003906 -33.640625 4.953125 -37.421875 C 6.898438 -41.203125 9.65625 -44.128906 13.21875 -46.203125 C 16.78125 -48.285156 20.921875 -49.328125 25.640625 -49.328125 C 30.328125 -49.328125 34.441406 -48.285156 37.984375 -46.203125 C 41.523438 -44.128906 44.265625 -41.203125 46.203125 -37.421875 C 48.148438 -33.640625 49.125 -29.234375 49.125 -24.203125 C 49.125 -19.210938 48.160156 -14.835938 46.234375 -11.078125 C 44.316406 -7.316406 41.585938 -4.421875 38.046875 -2.390625 C 34.503906 -0.359375 30.367188 0.65625 25.640625 0.65625 Z M 25.640625 -9.578125 C 27.566406 -9.578125 29.097656 -10.046875 30.234375 -10.984375 C 31.367188 -11.921875 32.195312 -13.4375 32.71875 -15.53125 C 33.25 -17.632812 33.515625 -20.457031 33.515625 -24 C 33.515625 -29.425781 32.898438 -33.316406 31.671875 -35.671875 C 30.453125 -38.035156 28.441406 -39.21875 25.640625 -39.21875 C 22.804688 -39.21875 20.765625 -38.035156 19.515625 -35.671875 C 18.265625 -33.316406 17.640625 -29.425781 17.640625 -24 C 17.640625 -20.457031 17.898438 -17.632812 18.421875 -15.53125 C 18.953125 -13.4375 19.796875 -11.921875 20.953125 -10.984375 C 22.117188 -10.046875 23.679688 -9.578125 25.640625 -9.578125 Z M 25.640625 -9.578125 "/></g></g></g><g fill="#0cc4dc" fill-opacity="1"><g transform="translate(237.500901, 76.069153)"><g><path d="M 3.40625 -47.15625 C 3.40625 -48.164062 3.820312 -48.671875 4.65625 -48.671875 L 40.078125 -48.671875 C 40.867188 -48.671875 41.265625 -48.210938 41.265625 -47.296875 L 41.1875 -39.6875 C 41.1875 -38.5 40.617188 -37.90625 39.484375 -37.90625 L 19.8125 -37.90625 C 18.800781 -37.90625 18.296875 -37.492188 18.296875 -36.671875 L 18.296875 -31.09375 C 18.296875 -30.65625 18.40625 -30.316406 18.625 -30.078125 C 18.84375 -29.835938 19.128906 -29.71875 19.484375 -29.71875 L 31.28125 -29.71875 C 32.207031 -29.71875 32.671875 -29.28125 32.671875 -28.40625 L 32.671875 -20.265625 C 32.671875 -19.523438 32.273438 -19.15625 31.484375 -19.15625 L 19.34375 -19.15625 C 19.039062 -19.15625 18.789062 -19.066406 18.59375 -18.890625 C 18.394531 -18.710938 18.296875 -18.492188 18.296875 -18.234375 L 18.296875 -11.671875 C 18.296875 -11.328125 18.347656 -11.085938 18.453125 -10.953125 C 18.566406 -10.816406 18.78125 -10.75 19.09375 -10.75 L 40.40625 -10.75 C 41.363281 -10.75 41.84375 -10.335938 41.84375 -9.515625 L 41.84375 -1.4375 C 41.84375 -1 41.710938 -0.648438 41.453125 -0.390625 C 41.191406 -0.128906 40.800781 0 40.28125 0 L 5.1875 0 C 4.53125 0 4.066406 -0.128906 3.796875 -0.390625 C 3.535156 -0.648438 3.40625 -1.066406 3.40625 -1.640625 Z M 3.40625 -47.15625 "/></g></g></g></svg>