<svg width="24" height="22" viewBox="0 0 24 22" fill="none" xmlns="http://www.w3.org/2000/svg">
<path d="M5 4.77813H11C11.55 4.77813 12 4.37303 12 3.8779C12 3.38277 11.55 2.97766 11 2.97766H5C3.9 2.97766 3 3.78787 3 4.77813V17.3814C3 18.3717 3.9 19.1819 5 19.1819H11C11.55 19.1819 12 18.7768 12 18.2817C12 17.7865 11.55 17.3814 11 17.3814H5V4.77813Z" fill="#0CC4DC"/>
<path d="M20.65 10.7647L17.86 8.25306C17.7905 8.18874 17.7012 8.14457 17.6036 8.12619C17.506 8.10781 17.4045 8.11607 17.3121 8.14991C17.2198 8.18375 17.1408 8.24162 17.0851 8.31613C17.0295 8.39063 16.9999 8.47838 17 8.56815V10.1796H10C9.45 10.1796 9 10.5847 9 11.0798C9 11.5749 9.45 11.98 10 11.98H17V13.5915C17 13.9966 17.54 14.1946 17.85 13.9065L20.64 11.3949C20.84 11.2238 20.84 10.9358 20.65 10.7647Z" fill="#0CC4DC"/>
</svg>
