<svg width="32" height="40" viewBox="0 0 32 40" fill="none" xmlns="http://www.w3.org/2000/svg">
<path d="M10.4348 3.44824C10.0658 3.44824 9.7119 3.59356 9.45098 3.85223C9.19006 4.1109 9.04347 4.46174 9.04347 4.82755V6.20686H7.65217C7.28317 6.20686 6.92929 6.35218 6.66837 6.61085C6.40745 6.86952 6.26086 7.22036 6.26086 7.58617C6.26086 7.95199 6.40745 8.30282 6.66837 8.56149C6.92929 8.82016 7.28317 8.96548 7.65217 8.96548H9.04347V10.3448C9.04347 10.7106 9.19006 11.0614 9.45098 11.3201C9.7119 11.5788 10.0658 11.7241 10.4348 11.7241C10.8038 11.7241 11.1577 11.5788 11.4186 11.3201C11.6795 11.0614 11.8261 10.7106 11.8261 10.3448V8.96548H13.2174C13.5864 8.96548 13.9403 8.82016 14.2012 8.56149C14.4621 8.30282 14.6087 7.95199 14.6087 7.58617C14.6087 7.22036 14.4621 6.86952 14.2012 6.61085C13.9403 6.35218 13.5864 6.20686 13.2174 6.20686H11.8261V4.82755C11.8261 4.46174 11.6795 4.1109 11.4186 3.85223C11.1577 3.59356 10.8038 3.44824 10.4348 3.44824Z" fill="#0CC4DC"/>
<path d="M15.3043 0C16.0423 0 16.7501 0.29064 17.2719 0.807981C17.7938 1.32532 18.087 2.02699 18.087 2.75862H23.6522C24.3902 2.75862 25.0979 3.04926 25.6198 3.5666C26.1416 4.08394 26.4348 4.78561 26.4348 5.51724V24.8276H29.2174C29.9554 24.8276 30.6632 25.1182 31.185 25.6356C31.7068 26.1529 32 26.8546 32 27.5862V40H29.2174V37.931C29.2174 37.7481 29.1441 37.5727 29.0136 37.4434C28.8832 37.314 28.7062 37.2414 28.5217 37.2414H21.5652C21.3807 37.2414 21.2038 37.314 21.0733 37.4434C20.9429 37.5727 20.8696 37.7481 20.8696 37.931V40H17.3913V37.931C17.3913 37.7481 17.318 37.5727 17.1876 37.4434C17.0571 37.314 16.8802 37.2414 16.6957 37.2414H13.913V40H11.8261V37.2414H9.04348C8.85898 37.2414 8.68204 37.314 8.55158 37.4434C8.42112 37.5727 8.34783 37.7481 8.34783 37.931V40H0V5.51724C0 4.78561 0.293167 4.08394 0.815007 3.5666C1.33685 3.04926 2.04462 2.75862 2.78261 2.75862C2.78261 2.02699 3.07578 1.32532 3.59762 0.807981C4.11946 0.29064 4.82722 0 5.56522 0H15.3043ZM4.17391 2.75862V12.4138C4.17391 12.7796 4.3205 13.1304 4.58142 13.3891C4.84234 13.6478 5.19622 13.7931 5.56522 13.7931H15.3043C15.6733 13.7931 16.0272 13.6478 16.2882 13.3891C16.5491 13.1304 16.6957 12.7796 16.6957 12.4138V2.75862C16.6957 2.3928 16.5491 2.04197 16.2882 1.7833C16.0272 1.52463 15.6733 1.37931 15.3043 1.37931H5.56522C5.19622 1.37931 4.84234 1.52463 4.58142 1.7833C4.3205 2.04197 4.17391 2.3928 4.17391 2.75862ZM9.3913 27.5862C9.11456 27.5862 8.84914 27.6952 8.65345 27.8892C8.45776 28.0832 8.34783 28.3463 8.34783 28.6207C8.34783 28.8951 8.45776 29.1582 8.65345 29.3522C8.84914 29.5462 9.11456 29.6552 9.3913 29.6552H28.1739C28.4507 29.6552 28.7161 29.5462 28.9118 29.3522C29.1075 29.1582 29.2174 28.8951 29.2174 28.6207C29.2174 28.3463 29.1075 28.0832 28.9118 27.8892C28.7161 27.6952 28.4507 27.5862 28.1739 27.5862H9.3913ZM9.3913 31.0345C9.11456 31.0345 8.84914 31.1435 8.65345 31.3375C8.45776 31.5315 8.34783 31.7946 8.34783 32.069C8.34783 32.3433 8.45776 32.6065 8.65345 32.8005C8.84914 32.9945 9.11456 33.1034 9.3913 33.1034H28.1739C28.4507 33.1034 28.7161 32.9945 28.9118 32.8005C29.1075 32.6065 29.2174 32.3433 29.2174 32.069C29.2174 31.7946 29.1075 31.5315 28.9118 31.3375C28.7161 31.1435 28.4507 31.0345 28.1739 31.0345H9.3913Z" fill="#0CC4DC"/>
</svg>
