<svg width="40" height="40" viewBox="0 0 40 40" fill="none" xmlns="http://www.w3.org/2000/svg">
<path d="M36.999 3.00678C35.0735 1.08156 32.4621 0 29.7391 0C27.0162 0 24.4048 1.08156 22.4792 3.00678L2.91517 22.5684C1.03025 24.5018 -0.017031 27.0999 0.000209535 29.8C0.01745 32.5001 1.09782 35.0846 3.00728 36.9938C4.91673 38.9029 7.5015 39.9829 10.2017 39.9998C12.9018 40.0167 15.4999 38.9691 17.4331 37.084L36.999 17.5224C38.9208 15.5958 40 12.9857 40 10.2646C40 7.54343 38.9208 4.93336 36.999 3.00678ZM34.8171 15.3424L25.0351 25.1223L14.8791 14.9685L24.6612 5.18672C26.0133 3.86588 27.8316 3.13133 29.7218 3.14237C31.6119 3.15342 33.4216 3.90917 34.7581 5.24571C36.0947 6.58225 36.8505 8.39182 36.8615 10.2819C36.8726 12.1721 36.138 13.9903 34.8171 15.3424ZM31.843 11.2447C31.9864 11.3879 32.1001 11.5579 32.1777 11.7451C32.2553 11.9323 32.2952 12.133 32.2952 12.3356C32.2952 12.5382 32.2553 12.7389 32.1777 12.9261C32.1001 13.1133 31.9864 13.2833 31.843 13.4265L27.217 18.0524C27.0737 18.1955 26.9037 18.309 26.7166 18.3865C26.5294 18.4639 26.3289 18.5037 26.1263 18.5036C25.9238 18.5035 25.7233 18.4635 25.5362 18.3859C25.3492 18.3084 25.1792 18.1947 25.0361 18.0514C24.8929 17.9082 24.7794 17.7381 24.702 17.551C24.6246 17.3638 24.5848 17.1633 24.5848 16.9608C24.5849 16.7583 24.6249 16.5578 24.7025 16.3707C24.7801 16.1836 24.8937 16.0137 25.037 15.8705L29.663 11.2447C29.9522 10.9557 30.3442 10.7934 30.753 10.7934C31.1618 10.7934 31.5538 10.9557 31.843 11.2447Z" fill="#0CC4DC"/>
</svg>
