<svg width="32" height="32" viewBox="0 0 32 32" fill="none" xmlns="http://www.w3.org/2000/svg">
<path d="M1.77778 32H30.2222C31.2 32 32 30.8 32 29.3333C32 27.8667 31.2 26.6667 30.2222 26.6667H1.77778C0.8 26.6667 0 27.8667 0 29.3333C0 30.8 0.8 32 1.77778 32ZM1.77778 18.6667H30.2222C31.2 18.6667 32 17.4667 32 16C32 14.5333 31.2 13.3333 30.2222 13.3333H1.77778C0.8 13.3333 0 14.5333 0 16C0 17.4667 0.8 18.6667 1.77778 18.6667ZM0 2.66667C0 4.13333 0.8 5.33333 1.77778 5.33333H30.2222C31.2 5.33333 32 4.13333 32 2.66667C32 1.2 31.2 0 30.2222 0H1.77778C0.8 0 0 1.2 0 2.66667Z" fill="#0CC4DC"/>
</svg>
