<svg width="24" height="23" viewBox="0 0 24 23" fill="none" xmlns="http://www.w3.org/2000/svg">
<path d="M11.943 2.03699C9.634 2.03699 7.825 2.03699 6.413 2.20781C4.969 2.38223 3.829 2.74725 2.934 3.55101C2.039 4.35567 1.634 5.3806 1.44 6.67974C1.25 7.94831 1.25 9.57472 1.25 11.6506V11.7531C1.25 13.8291 1.25 15.4555 1.44 16.7249C1.634 18.0232 2.04 19.0481 2.934 19.8528C3.829 20.6574 4.969 21.0216 6.414 21.196C7.825 21.3668 9.634 21.3668 11.943 21.3668H12.057C14.366 21.3668 16.175 21.3668 17.587 21.196C19.031 21.0216 20.171 20.6565 21.066 19.8528C21.961 19.0481 22.366 18.0232 22.56 16.724C22.75 15.4555 22.75 13.8291 22.75 11.7531V10.3533C22.75 10.1745 22.671 10.003 22.5303 9.8765C22.3897 9.75005 22.1989 9.67901 22 9.67901C21.8011 9.67901 21.6103 9.75005 21.4697 9.8765C21.329 10.003 21.25 10.1745 21.25 10.3533V11.7019C21.25 13.8399 21.248 15.3755 21.074 16.5442C20.902 17.6941 20.574 18.3873 20.005 18.8998C19.435 19.4113 18.665 19.7053 17.386 19.86C16.086 20.0164 14.378 20.0182 12 20.0182C9.622 20.0182 7.914 20.0164 6.614 19.86C5.335 19.7053 4.564 19.4104 3.994 18.8989C3.425 18.3864 3.098 17.6941 2.926 16.5442C2.752 15.3755 2.75 13.8399 2.75 11.7019C2.75 9.56393 2.752 8.02833 2.926 6.85955C3.098 5.70965 3.426 5.01648 3.995 4.50401C4.565 3.99245 5.335 3.69845 6.614 3.54381C7.914 3.38738 9.622 3.38558 12 3.38558H13.5C13.6989 3.38558 13.8897 3.31454 14.0303 3.18808C14.171 3.06163 14.25 2.89012 14.25 2.71128C14.25 2.53245 14.171 2.36094 14.0303 2.23448C13.8897 2.10803 13.6989 2.03699 13.5 2.03699H11.943Z" fill="#0CC4DC"/>
<path fill-rule="evenodd" clip-rule="evenodd" d="M19 2.03699C18.0054 2.03699 17.0516 2.3922 16.3483 3.02447C15.6451 3.65675 15.25 4.51429 15.25 5.40847C15.25 6.30264 15.6451 7.16019 16.3483 7.79246C17.0516 8.42474 18.0054 8.77994 19 8.77994C19.9946 8.77994 20.9484 8.42474 21.6517 7.79246C22.3549 7.16019 22.75 6.30264 22.75 5.40847C22.75 4.51429 22.3549 3.65675 21.6517 3.02447C20.9484 2.3922 19.9946 2.03699 19 2.03699ZM16.75 5.40847C16.75 4.87196 16.9871 4.35743 17.409 3.97807C17.831 3.5987 18.4033 3.38558 19 3.38558C19.5967 3.38558 20.169 3.5987 20.591 3.97807C21.0129 4.35743 21.25 4.87196 21.25 5.40847C21.25 5.94497 21.0129 6.4595 20.591 6.83886C20.169 7.21823 19.5967 7.43135 19 7.43135C18.4033 7.43135 17.831 7.21823 17.409 6.83886C16.9871 6.4595 16.75 5.94497 16.75 5.40847Z" fill="#0CC4DC"/>
<path d="M6.25 13.5C6.25 13.3211 6.32902 13.1496 6.46967 13.0232C6.61032 12.8967 6.80109 12.8257 7 12.8257H16C16.1989 12.8257 16.3897 12.8967 16.5303 13.0232C16.671 13.1496 16.75 13.3211 16.75 13.5C16.75 13.6788 16.671 13.8503 16.5303 13.9768C16.3897 14.1032 16.1989 14.1743 16 14.1743H7C6.80109 14.1743 6.61032 14.1032 6.46967 13.9768C6.32902 13.8503 6.25 13.6788 6.25 13.5ZM7 15.9724C6.80109 15.9724 6.61032 16.0434 6.46967 16.1699C6.32902 16.2963 6.25 16.4679 6.25 16.6467C6.25 16.8255 6.32902 16.997 6.46967 17.1235C6.61032 17.2499 6.80109 17.321 7 17.321H13C13.1989 17.321 13.3897 17.2499 13.5303 17.1235C13.671 16.997 13.75 16.8255 13.75 16.6467C13.75 16.4679 13.671 16.2963 13.5303 16.1699C13.3897 16.0434 13.1989 15.9724 13 15.9724H7Z" fill="#0CC4DC"/>
</svg>
