<svg width="28" height="32" viewBox="0 0 28 32" fill="none" xmlns="http://www.w3.org/2000/svg">
<path d="M14.0023 32C16.0325 32 17.6937 30.5231 17.6937 28.7179H10.3109C10.3109 29.5884 10.6998 30.4232 11.3921 31.0387C12.0843 31.6542 13.0233 32 14.0023 32ZM25.0764 22.1538V13.9487C25.0764 8.91077 22.0495 4.69333 16.7708 3.57744V2.46154C16.7708 1.09949 15.5342 0 14.0023 0C12.4704 0 11.2337 1.09949 11.2337 2.46154V3.57744C5.93662 4.69333 2.92814 8.89436 2.92814 13.9487V22.1538L0.547205 24.2708C-0.615579 25.3046 0.196524 27.0769 1.83919 27.0769H26.1469C27.7896 27.0769 28.6201 25.3046 27.4573 24.2708L25.0764 22.1538Z" fill="#0CC4DC"/>
</svg>
