<svg width="20" height="20" viewBox="0 0 20 20" fill="none" xmlns="http://www.w3.org/2000/svg">
<path d="M1.66748 13.3333C1.66748 10.9767 1.66748 9.7975 2.39998 9.06583C3.13165 8.33333 4.31081 8.33333 6.66748 8.33333H13.3341C15.6908 8.33333 16.87 8.33333 17.6016 9.06583C18.3341 9.7975 18.3341 10.9767 18.3341 13.3333C18.3341 15.69 18.3341 16.8692 17.6016 17.6008C16.87 18.3333 15.6908 18.3333 13.3341 18.3333H6.66748C4.31081 18.3333 3.13165 18.3333 2.39998 17.6008C1.66748 16.8692 1.66748 15.69 1.66748 13.3333Z" stroke="white" stroke-width="1.5"/>
<path d="M5.00085 8.33333V6.66667C5.00085 5.34058 5.52764 4.06881 6.46532 3.13113C7.403 2.19345 8.67477 1.66667 10.0009 1.66667C11.3269 1.66667 12.5987 2.19345 13.5364 3.13113C14.4741 4.06881 15.0009 5.34058 15.0009 6.66667V8.33333" stroke="white" stroke-width="1.5" stroke-linecap="round"/>
<path d="M6.66748 13.3333H6.67498M9.99331 13.3333H10.0008M13.3266 13.3333H13.3341" stroke="white" stroke-width="2" stroke-linecap="round" stroke-linejoin="round"/>
</svg>
