<svg width="44" height="42" viewBox="0 0 44 42" fill="none" xmlns="http://www.w3.org/2000/svg">
<mask id="mask0_100_37" style="mask-type:luminance" maskUnits="userSpaceOnUse" x="0" y="0" width="44" height="42">
<path d="M38.8421 12.6316H5.15789C3.41384 12.6316 2 14.0454 2 15.7895V36.8421C2 38.5862 3.41384 40 5.15789 40H38.8421C40.5862 40 42 38.5862 42 36.8421V15.7895C42 14.0454 40.5862 12.6316 38.8421 12.6316Z" fill="white" stroke="white" stroke-width="4" stroke-linejoin="round"/>
<path d="M16.7369 4.21053H27.2632V0H16.7369V4.21053ZM28.3158 5.26316V12.6316H32.5263V5.26316H28.3158ZM15.6842 12.6316V5.26316H11.4737V12.6316H15.6842ZM27.2632 4.21053C27.5423 4.21053 27.8101 4.32143 28.0075 4.51884C28.2049 4.71624 28.3158 4.98398 28.3158 5.26316H32.5263C32.5263 3.86728 31.9718 2.52858 30.9848 1.54154C29.9977 0.55451 28.659 0 27.2632 0V4.21053ZM16.7369 0C15.341 0 14.0023 0.55451 13.0152 1.54154C12.0282 2.52858 11.4737 3.86728 11.4737 5.26316H15.6842C15.6842 4.98398 15.7951 4.71624 15.9925 4.51884C16.1899 4.32143 16.4577 4.21053 16.7369 4.21053V0Z" fill="white"/>
<path d="M15.6842 26.3158H28.3158M22 20V32.6316" stroke="black" stroke-width="4" stroke-linecap="round" stroke-linejoin="round"/>
</mask>
<g mask="url(#mask0_100_37)">
<path d="M-3.26318 -4.21045H47.2631V46.3159H-3.26318V-4.21045Z" fill="#0CC4DC"/>
</g>
</svg>
