<svg width="20" height="20" viewBox="0 0 20 20" fill="none" xmlns="http://www.w3.org/2000/svg">
<path d="M19.6496 17.875C18.2218 15.4066 16.0214 13.6366 13.4536 12.7975C14.7238 12.0414 15.7106 10.8892 16.2626 9.51793C16.8145 8.14667 16.9011 6.63213 16.509 5.2069C16.1169 3.78167 15.2678 2.52456 14.092 1.62862C12.9163 0.73268 11.479 0.247452 10.0008 0.247452C8.52263 0.247452 7.08532 0.73268 5.90959 1.62862C4.73387 2.52456 3.88475 3.78167 3.49264 5.2069C3.10052 6.63213 3.18709 8.14667 3.73906 9.51793C4.29102 10.8892 5.27785 12.0414 6.54801 12.7975C3.98019 13.6356 1.77988 15.4056 0.352068 17.875C0.299708 17.9604 0.264978 18.0554 0.249927 18.1544C0.234876 18.2534 0.239809 18.3544 0.264435 18.4515C0.289061 18.5486 0.332882 18.6398 0.393311 18.7196C0.45374 18.7995 0.529554 18.8665 0.616279 18.9165C0.703005 18.9666 0.798885 18.9989 0.898263 19.0113C0.997641 19.0237 1.0985 19.0161 1.1949 18.989C1.2913 18.9618 1.38128 18.9156 1.45953 18.8531C1.53778 18.7906 1.60271 18.713 1.65051 18.625C3.41676 15.5725 6.53863 13.75 10.0008 13.75C13.463 13.75 16.5849 15.5725 18.3511 18.625C18.3989 18.713 18.4639 18.7906 18.5421 18.8531C18.6204 18.9156 18.7103 18.9618 18.8067 18.989C18.9031 19.0161 19.004 19.0237 19.1034 19.0113C19.2028 18.9989 19.2986 18.9666 19.3854 18.9165C19.4721 18.8665 19.5479 18.7995 19.6083 18.7196C19.6688 18.6398 19.7126 18.5486 19.7372 18.4515C19.7618 18.3544 19.7668 18.2534 19.7517 18.1544C19.7367 18.0554 19.7019 17.9604 19.6496 17.875ZM4.75082 7C4.75082 5.96165 5.05873 4.94662 5.6356 4.08326C6.21248 3.2199 7.03242 2.54699 7.99173 2.14963C8.95104 1.75227 10.0066 1.64831 11.025 1.85088C12.0434 2.05345 12.9789 2.55347 13.7131 3.28769C14.4474 4.02192 14.9474 4.95738 15.1499 5.97578C15.3525 6.99418 15.2485 8.04978 14.8512 9.00909C14.4538 9.9684 13.7809 10.7883 12.9176 11.3652C12.0542 11.9421 11.0392 12.25 10.0008 12.25C8.60889 12.2485 7.2744 11.6949 6.29015 10.7107C5.30591 9.72643 4.75231 8.39193 4.75082 7Z" fill="white"/>
</svg>
