<svg width="25" height="24" viewBox="0 0 25 24" fill="none" xmlns="http://www.w3.org/2000/svg">
<path fill-rule="evenodd" clip-rule="evenodd" d="M5.21289 8.512C5.27702 8.43718 5.35526 8.37573 5.44315 8.33116C5.53104 8.28659 5.62685 8.25978 5.7251 8.25225C5.82336 8.24473 5.92214 8.25665 6.01578 8.28732C6.10943 8.31799 6.19612 8.36681 6.27089 8.431L12.7829 14.012L19.2949 8.431C19.4467 8.30913 19.64 8.25107 19.8338 8.2691C20.0277 8.28713 20.2069 8.37984 20.3337 8.52762C20.4604 8.6754 20.5247 8.86668 20.513 9.06102C20.5013 9.25535 20.4145 9.43752 20.2709 9.569L13.2709 15.569C13.135 15.6855 12.9619 15.7495 12.7829 15.7495C12.6039 15.7495 12.4308 15.6855 12.2949 15.569L5.29489 9.569C5.14407 9.43952 5.05083 9.25546 5.03564 9.05726C5.02045 8.85907 5.08457 8.66295 5.21389 8.512H5.21289Z" fill="white"/>
</svg>
